<?xml version="1.0" standalone="no"?>
<!DOCTYPE svg PUBLIC "-//W3C//DTD SVG 20010904//EN"
 "http://www.w3.org/TR/2001/REC-SVG-20010904/DTD/svg10.dtd">
<svg version="1.0" xmlns="http://www.w3.org/2000/svg"
 width="2000.000000pt" height="2000.000000pt" viewBox="0 0 2000.000000 2000.000000"
 preserveAspectRatio="xMidYMid meet">
<metadata>
Created by potrace 1.11, written by Peter Selinger 2001-2013
</metadata>
<g transform="translate(0.000000,2000.000000) scale(0.100000,-0.100000)"
fill="#000000" stroke="none">
<path d="M10098 19995 c-2 -1 -43 -5 -93 -9 -105 -7 -313 -36 -365 -51 -8 -2
-31 -7 -50 -10 -220 -36 -773 -223 -1067 -361 -84 -39 -105 -44 -318 -75 -301
-43 -420 -81 -568 -181 -88 -59 -257 -194 -458 -364 -106 -90 -229 -179 -294
-211 -45 -23 -219 -130 -385 -238 -83 -54 -151 -88 -220 -111 -68 -22 -136
-64 -265 -165 -171 -133 -324 -308 -392 -446 -15 -29 -30 -53 -35 -53 -13 0
-19 -2 -77 -25 -62 -24 -55 -10 -101 -207 -29 -127 -34 -141 -69 -175 -90 -91
-145 -179 -175 -283 -13 -45 -24 -61 -59 -85 -69 -49 -187 -166 -228 -227 -27
-39 -44 -79 -53 -125 -8 -37 -26 -111 -40 -163 -13 -52 -32 -129 -40 -171 -17
-75 -17 -77 -81 -128 -130 -106 -177 -165 -190 -240 -3 -18 -25 -72 -49 -119
-57 -114 -129 -295 -160 -406 -31 -107 -34 -122 -42 -211 -3 -38 -8 -72 -10
-75 -3 -2 -25 -5 -49 -6 -84 -3 -144 -14 -202 -36 -68 -25 -97 -46 -101 -73
-6 -39 -44 -146 -55 -155 -70 -55 -79 -67 -84 -112 -4 -30 0 -61 11 -90 l17
-44 -31 -61 -31 -61 -62 3 c-34 2 -48 2 -32 -1 92 -13 93 -14 88 -33 -4 -17
-14 -19 -86 -17 -51 2 -70 0 -52 -4 17 -4 52 -8 78 -9 33 -1 49 -6 54 -16 3
-9 3 -18 1 -21 -3 -3 -79 -7 -169 -10 -90 -3 -171 -10 -179 -15 -12 -8 -11 -9
5 -5 19 5 176 9 283 7 38 -1 52 -5 52 -15 0 -8 -3 -17 -8 -19 -7 -5 -79 -14
-167 -23 -27 -2 -72 -9 -100 -14 -43 -7 -39 -8 30 -4 73 5 181 8 213 5 14 -1
-16 -58 -74 -141 -17 -25 -45 -90 -62 -145 -29 -95 -99 -351 -108 -398 -2 -12
-6 -33 -9 -47 -7 -31 -13 -63 -22 -115 -7 -42 -9 -223 -3 -310 4 -67 -25 -161
-58 -183 -51 -35 -62 -52 -62 -90 0 -46 69 -187 158 -321 34 -52 62 -101 62
-108 0 -7 -19 -33 -43 -56 -33 -32 -61 -47 -117 -65 -198 -62 -410 -205 -535
-362 -64 -81 -142 -256 -161 -362 -6 -37 -53 -113 -55 -90 -1 7 -2 15 -3 20
-1 4 -6 52 -11 107 -4 55 -9 107 -10 115 -1 8 -5 44 -10 80 -4 36 -9 74 -12
85 -2 11 -5 27 -5 35 -1 26 -56 325 -72 391 -68 275 -172 535 -278 693 -55 82
-191 215 -253 247 -78 41 -165 66 -165 48 0 -5 7 -9 16 -9 31 0 139 -59 196
-107 159 -133 294 -390 387 -735 21 -76 68 -296 76 -353 22 -153 30 -213 40
-300 3 -27 8 -66 11 -85 5 -38 9 -81 19 -223 l7 -94 -66 -82 -67 -82 -25 58
c-231 528 -479 928 -734 1184 -214 215 -400 316 -580 317 -91 0 -124 -16 -40
-19 93 -3 88 -3 168 -28 71 -23 205 -99 266 -151 60 -51 180 -176 234 -244 31
-39 60 -73 63 -76 3 -3 39 -54 79 -115 41 -60 77 -111 82 -113 4 -2 8 -8 8
-14 0 -6 17 -38 37 -72 60 -97 88 -149 191 -356 93 -186 119 -242 176 -373
l26 -58 -80 -114 c-44 -62 -80 -118 -80 -123 0 -28 -20 -17 -56 30 -21 28 -43
56 -49 62 -5 6 -32 38 -60 71 -27 33 -52 62 -55 65 -3 3 -18 21 -34 40 -115
141 -368 397 -521 526 -415 350 -801 491 -1051 384 -58 -25 -54 -35 6 -13 70
25 235 22 335 -6 353 -98 792 -460 1288 -1064 160 -195 151 -178 133 -232 -9
-25 -16 -59 -16 -75 0 -17 -2 -30 -5 -30 -2 0 -62 44 -132 99 -421 324 -828
555 -1141 646 -280 82 -534 69 -674 -34 -50 -37 -44 -39 20 -7 154 78 351 82
587 12 243 -72 590 -253 870 -453 33 -24 71 -51 85 -60 55 -40 307 -229 330
-250 14 -12 35 -30 47 -40 15 -13 23 -33 26 -71 7 -64 8 -64 -98 8 -41 27 -76
50 -79 50 -2 0 -31 17 -63 38 -143 95 -475 271 -648 343 -44 18 -82 34 -85 35
-3 0 -16 5 -30 11 -100 41 -324 104 -420 118 -25 4 -56 9 -70 11 -43 7 -223 6
-275 -1 -102 -15 -204 -58 -273 -117 -46 -38 -39 -44 11 -10 104 70 200 95
362 95 66 -1 132 -3 148 -6 15 -3 53 -11 85 -17 84 -15 90 -16 177 -43 282
-87 619 -251 1005 -490 63 -40 117 -75 118 -79 2 -5 10 -8 17 -8 8 0 16 -4 20
-9 3 -6 -21 -2 -52 8 -117 37 -171 51 -293 75 -167 33 -232 40 -380 39 -171
-1 -163 -1 -258 -23 -110 -26 -201 -72 -269 -133 -66 -61 -70 -82 -5 -29 89
73 170 110 295 133 125 22 391 9 547 -27 14 -3 32 -7 40 -9 177 -39 488 -139
496 -159 6 -17 21 -136 17 -136 -2 0 -11 4 -21 9 -155 83 -430 182 -603 219
-182 39 -367 46 -479 17 -95 -25 -169 -58 -219 -100 -17 -15 -31 -32 -31 -38
0 -6 10 -1 23 11 32 30 131 73 212 92 204 46 524 -13 860 -160 100 -43 121
-53 195 -91 63 -32 76 -42 81 -68 4 -17 4 -32 2 -34 -2 -3 -48 8 -101 24 -53
15 -109 30 -124 33 -15 2 -31 7 -35 9 -14 9 -247 58 -363 78 -242 40 -500 46
-697 15 -151 -23 -322 -104 -400 -189 -69 -75 -70 -96 -2 -31 96 91 215 145
399 180 51 9 366 12 414 3 23 -4 68 -10 101 -13 54 -5 111 -14 275 -46 79 -15
84 -16 210 -49 229 -59 339 -94 341 -108 1 -11 4 -26 22 -103 9 -36 14 -66 12
-68 -1 -2 -40 4 -86 12 -46 9 -100 18 -119 20 -19 3 -84 12 -145 20 -542 74
-988 42 -1273 -89 -134 -62 -259 -173 -291 -258 -17 -44 -13 -43 17 1 149 221
453 326 942 325 115 0 292 -8 365 -17 26 -4 134 -15 200 -21 11 -1 31 -5 45
-8 14 -3 102 -18 195 -33 94 -14 176 -32 184 -39 9 -9 11 -23 6 -44 -5 -26
-12 -31 -36 -32 -16 -1 -32 -2 -36 -3 -5 -1 -37 -6 -73 -11 -36 -5 -67 -9 -70
-10 -3 -1 -25 -5 -49 -9 -70 -13 -243 -71 -307 -104 -127 -64 -225 -154 -273
-250 -30 -58 -20 -65 12 -9 27 45 103 125 153 158 137 94 348 155 620 182 l42
4 0 -131 c0 -72 2 -143 5 -158 6 -28 5 -29 -78 -43 -137 -23 -523 -146 -545
-174 -3 -3 -11 -7 -19 -9 -32 -7 -200 -125 -247 -174 -66 -68 -121 -149 -134
-200 -6 -21 -14 -47 -17 -56 -12 -33 14 2 27 38 19 50 90 148 141 195 40 36
181 135 193 135 3 0 29 11 58 24 134 61 299 112 468 145 172 33 170 32 171 19
2 -42 37 -160 72 -248 l34 -84 -109 -43 c-116 -46 -303 -136 -329 -159 -8 -8
-18 -14 -22 -14 -21 0 -146 -99 -227 -180 -74 -73 -104 -112 -133 -170 -31
-63 -57 -151 -57 -193 0 -11 15 0 16 11 4 58 48 153 106 230 101 136 266 252
506 357 85 37 274 107 278 102 1 -1 16 -26 35 -56 29 -49 33 -62 35 -143 6
-256 47 -370 194 -547 86 -103 140 -133 310 -175 80 -20 215 -54 300 -76 85
-22 164 -42 175 -44 53 -11 234 -45 266 -51 21 -3 41 -11 46 -18 5 -6 40 -88
78 -182 130 -324 153 -361 363 -584 58 -63 106 -121 106 -130 0 -9 -4 -47 -9
-86 -4 -38 -9 -92 -11 -120 -4 -72 -15 -202 -18 -222 -2 -10 -7 -43 -11 -73
-4 -30 -9 -64 -11 -75 -12 -82 -49 -184 -80 -216 -15 -16 -22 -32 -18 -42 3
-10 9 -17 13 -17 3 1 31 23 61 51 54 49 127 95 137 86 10 -11 -20 -90 -82
-211 -70 -139 -66 -125 -185 -635 -33 -145 -59 -265 -56 -268 5 -5 80 54 146
114 19 18 38 33 41 33 3 0 17 9 30 21 24 21 42 35 134 106 77 60 225 156 231
150 7 -7 -52 -92 -127 -182 -51 -62 -65 -91 -124 -245 -36 -96 -70 -184 -75
-195 -5 -11 -63 -161 -130 -334 -92 -240 -117 -317 -109 -327 14 -17 27 -9
112 73 84 80 345 313 351 313 5 0 -26 -89 -102 -297 -17 -46 -28 -83 -25 -83
3 0 17 8 31 18 28 19 204 126 270 164 374 215 632 328 632 278 0 -43 -125
-195 -329 -398 -88 -89 -101 -106 -89 -118 11 -12 21 -11 65 6 135 51 311 63
385 27 28 -15 47 -17 80 -11 53 9 140 13 151 7 4 -3 -28 -27 -73 -53 -262
-160 -516 -396 -663 -617 -85 -128 -154 -283 -188 -426 -26 -108 -24 -115 17
-65 80 96 184 181 202 164 3 -4 0 -39 -7 -79 -14 -79 -14 -363 -2 -549 1 -13
41 -9 42 5 0 6 2 19 4 27 17 76 26 111 41 145 l17 40 8 -27 c15 -54 20 -150
25 -493 3 -192 6 -354 7 -358 1 -4 11 0 22 10 22 20 156 135 196 168 43 36
153 105 176 111 13 4 29 4 37 1 27 -11 -9 -124 -91 -277 l-45 -85 0 -228 -1
-228 -43 -41 c-103 -97 -91 -173 31 -185 55 -6 57 -5 53 18 -1 13 2 24 7 24 6
0 35 27 65 60 115 125 220 215 251 215 24 0 25 -40 4 -105 -24 -70 -7 -83 51
-39 19 15 37 24 41 21 3 -4 18 2 34 13 42 31 81 35 102 12 24 -26 25 -133 2
-242 -27 -130 -21 -244 14 -255 39 -12 66 20 121 144 18 41 41 90 52 110 12
20 31 55 44 79 125 234 303 476 329 450 21 -20 6 -180 -31 -338 -10 -44 -14
-107 -13 -195 2 -116 6 -150 24 -232 7 -30 39 -47 64 -33 11 5 32 37 48 70 15
33 30 60 33 60 3 0 13 -33 23 -72 23 -92 93 -241 154 -326 63 -89 197 -222
223 -222 3 0 5 84 6 187 0 181 10 430 19 503 2 19 7 58 10 85 6 52 12 92 21
137 3 15 5 30 5 33 -1 3 5 21 13 40 9 20 15 38 15 40 1 17 33 64 47 69 21 8
55 -14 88 -57 36 -47 117 -214 160 -331 28 -74 109 -379 150 -561 20 -89 60
-245 62 -242 4 3 53 172 58 201 3 11 14 66 26 121 11 55 23 134 27 175 3 41 7
76 8 77 1 2 67 -63 147 -143 l146 -145 58 83 c165 238 322 426 376 454 l30 16
-4 -64 c-3 -47 -17 -91 -55 -178 -136 -310 -205 -547 -197 -677 3 -61 7 -68
27 -60 14 5 33 41 190 367 127 265 486 990 489 990 2 0 3 -89 3 -198 1 -265
13 -400 42 -477 63 -170 165 -51 292 342 19 57 37 101 41 98 11 -7 88 -243 95
-291 4 -21 8 -46 11 -56 9 -32 5 -148 -6 -184 -10 -30 -10 -38 1 -45 18 -11
51 21 156 151 86 107 138 198 148 259 7 43 40 90 72 102 80 30 125 -51 197
-353 32 -133 59 -193 96 -209 25 -12 29 -22 50 -118 45 -212 86 -305 130 -294
29 8 47 63 65 193 10 72 20 249 20 355 -1 166 -8 222 -51 434 -14 68 -73 228
-117 315 -36 72 -51 113 -52 148 -1 26 -2 48 0 48 1 0 31 -29 66 -64 35 -35
77 -68 92 -71 41 -11 75 8 85 47 17 61 2 230 -34 388 -15 64 -22 105 -19 108
1 2 54 -33 116 -76 161 -112 292 -191 328 -198 17 -4 31 -4 31 0 0 4 -20 41
-44 84 -49 87 -176 336 -201 397 -60 143 -81 249 -51 261 7 3 37 -6 65 -19 28
-14 51 -23 51 -20 0 3 -6 19 -14 36 -29 64 -35 104 -19 127 13 18 21 20 55 15
78 -14 205 -76 369 -181 61 -39 69 -42 78 -26 7 13 -5 32 -61 92 -86 92 -164
195 -178 234 l-10 29 40 -7 c54 -9 198 -76 290 -136 94 -61 125 -70 135 -40 7
23 -30 120 -47 120 -4 0 -8 6 -8 13 0 7 -46 69 -102 138 -103 125 -143 179
-133 179 13 0 221 -144 245 -170 3 -3 23 -18 45 -35 22 -16 42 -32 45 -35 3
-3 27 -23 53 -45 31 -25 91 -100 170 -214 157 -228 300 -450 333 -516 20 -43
29 -52 45 -48 11 3 18 11 15 18 -2 7 -32 87 -65 177 -218 594 -354 900 -464
1040 -27 34 -28 39 -17 75 101 326 336 623 604 763 263 138 576 170 916 95 14
-3 40 -8 59 -11 19 -3 77 -19 130 -36 53 -16 108 -33 122 -38 51 -16 68 -31
95 -87 29 -61 86 -144 125 -180 89 -82 179 -50 245 85 27 57 64 165 64 189 0
21 48 35 125 35 284 1 569 -302 786 -836 l24 -59 13 44 c43 146 108 414 119
492 3 21 6 46 8 55 2 9 4 33 4 53 l1 35 53 -6 c28 -4 84 -6 122 -5 56 2 92 -4
180 -30 148 -45 331 -92 381 -97 25 -3 52 -15 70 -31 63 -56 78 -68 123 -96
59 -38 106 -46 130 -22 17 17 23 17 82 5 76 -17 164 -21 200 -10 21 6 27 4 32
-11 3 -10 22 -47 43 -83 108 -193 264 -526 264 -566 0 -10 7 -14 22 -12 21 3
25 16 55 193 18 105 35 206 39 225 3 19 6 43 6 53 -1 29 16 19 50 -30 l32 -48
13 55 c21 94 36 207 37 278 1 39 11 40 79 6 311 -156 572 -409 726 -704 64
-124 98 -227 162 -495 l53 -220 22 50 c78 180 172 505 181 630 3 44 7 81 8 83
1 2 21 -5 44 -14 48 -19 107 -83 116 -126 10 -44 46 -52 50 -10 2 17 13 105
20 152 5 31 14 109 24 215 5 44 9 173 8 286 0 213 -9 287 -47 397 -11 31 -20
57 -20 58 0 2 13 1 30 -1 48 -6 94 -33 114 -65 9 -17 26 -30 37 -30 18 0 19 8
19 133 l0 132 87 -1 c109 -1 162 15 187 57 20 33 85 68 127 69 31 0 75 -32 84
-60 7 -22 13 -24 33 -11 11 6 6 30 -21 117 -37 113 -66 215 -73 248 -2 11 -12
63 -23 115 -38 184 -34 316 11 344 46 30 172 -54 319 -213 111 -121 140 -139
180 -115 46 29 48 193 4 415 -3 14 -9 48 -15 75 -5 28 -12 61 -14 75 -15 74
-80 329 -95 370 -22 58 -72 232 -76 259 -4 31 2 36 56 46 28 6 26 3 33 47 5
35 -4 104 -18 139 -6 13 -2 16 18 12 52 -10 75 46 71 178 -3 86 -8 142 -20
209 -3 14 -7 41 -10 60 -4 19 -17 87 -31 150 -21 101 -22 116 -9 126 50 37 56
150 19 326 -21 98 -83 316 -104 363 -5 11 -23 61 -41 110 -17 50 -49 132 -71
184 -38 94 -38 95 -23 140 27 80 20 153 -33 318 l-10 31 56 -25 c146 -65 286
-91 327 -60 20 16 20 16 -9 73 -17 31 -51 86 -77 122 -39 53 -62 106 -132 301
-197 546 -290 887 -296 1081 -2 74 0 89 18 112 20 24 24 26 54 16 51 -17 84
-44 210 -167 65 -64 140 -131 168 -149 81 -55 138 -50 166 15 36 86 -10 353
-104 607 -158 424 -311 946 -278 946 20 0 101 -69 135 -115 78 -106 128 -132
152 -79 9 19 9 44 0 102 -16 104 -20 125 -43 212 -31 117 -35 129 -64 225 -50
169 -90 329 -120 490 -9 50 -7 137 4 148 7 7 36 -16 93 -75 91 -93 128 -111
162 -78 41 40 37 155 -15 360 -11 47 -23 95 -25 108 -14 75 -158 595 -181 652
-3 8 -7 20 -9 25 -16 55 -16 55 3 55 11 0 30 11 43 25 19 20 24 36 23 74 -2
57 -45 192 -100 311 -83 177 -297 541 -488 826 -36 54 -64 99 -62 101 4 3 53
-16 220 -85 53 -22 97 -38 97 -36 0 8 -66 136 -105 204 -21 36 -51 90 -68 120
-17 30 -42 73 -57 95 -15 22 -30 47 -34 55 -14 29 -198 307 -249 375 -12 16
-48 64 -79 106 -32 42 -63 83 -71 90 -7 8 -19 23 -27 35 -56 79 -280 312 -395
411 -176 150 -369 264 -512 302 -37 10 -310 202 -328 231 -7 11 46 72 130 149
151 140 190 188 341 426 247 390 360 595 439 795 20 52 40 102 44 110 24 48
90 302 115 444 26 146 26 582 0 836 -13 137 -70 226 -155 248 -40 10 -203 8
-252 -2 -43 -10 -147 -51 -192 -76 -50 -27 -141 -95 -178 -131 -29 -29 -197
-99 -282 -117 -27 -6 -165 -14 -305 -17 -140 -3 -284 -8 -320 -10 -36 -1 -166
-6 -290 -11 -124 -4 -245 -8 -270 -10 -121 -6 -280 -5 -292 2 -7 4 -76 56
-153 114 -218 165 -397 276 -640 398 -389 195 -854 339 -1265 392 -47 6 -98
13 -115 15 -193 27 -799 27 -965 1 -14 -3 -54 -7 -90 -11 -36 -4 -74 -9 -85
-11 -11 -2 -42 -6 -69 -9 -27 -3 -52 -7 -55 -9 -3 -2 -33 -7 -66 -11 -32 -3
-62 -8 -65 -10 -3 -2 -21 -6 -40 -9 -19 -3 -64 -12 -100 -20 -36 -8 -76 -17
-90 -20 -14 -3 -74 -17 -135 -32 -60 -14 -119 -28 -130 -30 -11 -2 -53 -11
-94 -20 -94 -21 -197 -15 -237 13 -43 30 -161 87 -229 111 -105 36 -175 52
-355 77 -43 7 -356 15 -362 10z m-4696 -18757 c-15 -29 -30 -55 -33 -58 -3 -3
-12 -18 -20 -34 -28 -59 -37 -38 -30 72 1 12 86 72 102 72 5 0 -4 -24 -19 -52z"/>
<path d="M3428 14393 c18 -2 45 -2 60 0 15 2 0 4 -33 4 -33 0 -45 -2 -27 -4z"/>
<path d="M3250 14230 c-17 -6 -9 -7 25 -3 28 3 52 7 54 9 8 7 -54 2 -79 -6z"/>
</g>
</svg>
